<svg width="36" height="36" viewBox="0 0 36 36" fill="none" xmlns="http://www.w3.org/2000/svg">
<mask id="mask0_580_1407" style="mask-type:alpha" maskUnits="userSpaceOnUse" x="2" y="2" width="32" height="32">
<rect x="2" y="2" width="32" height="32" fill="#D9D9D9"/>
</mask>
<g mask="url(#mask0_580_1407)">
<path d="M18 18.1228C16.7167 18.1228 15.6181 17.6622 14.7042 16.741C13.7903 15.8198 13.3333 14.7124 13.3333 13.4188C13.3333 12.1252 13.7903 11.0178 14.7042 10.0966C15.6181 9.17545 16.7167 8.71484 18 8.71484C19.2833 8.71484 20.3819 9.17545 21.2958 10.0966C22.2097 11.0178 22.6666 12.1252 22.6666 13.4188C22.6666 14.7124 22.2097 15.8198 21.2958 16.741C20.3819 17.6622 19.2833 18.1228 18 18.1228ZM8 28.3579V25.3701C8 24.7119 8.17736 24.1024 8.53207 23.5415C8.88676 22.9807 9.36068 22.5495 9.95383 22.2479C11.2718 21.5966 12.6013 21.1081 13.9423 20.7824C15.2833 20.4568 16.6359 20.294 18 20.294C19.3641 20.294 20.7166 20.4568 22.0576 20.7824C23.3987 21.1081 24.7281 21.5966 26.0461 22.2479C26.6393 22.5495 27.1132 22.9807 27.4679 23.5415C27.8226 24.1024 27.9999 24.7119 27.9999 25.3701V28.3579H8ZM9.99997 26.3419H26V25.3701C26 25.0978 25.9218 24.8458 25.7653 24.6141C25.6089 24.3823 25.3965 24.1932 25.1282 24.0468C23.9795 23.4764 22.8081 23.0444 21.6142 22.7506C20.4203 22.4568 19.2156 22.3099 18 22.3099C16.7844 22.3099 15.5796 22.4568 14.3857 22.7506C13.1918 23.0444 12.0205 23.4764 10.8718 24.0468C10.6034 24.1932 10.391 24.3823 10.2346 24.6141C10.0782 24.8458 9.99997 25.0978 9.99997 25.3701V26.3419ZM18 16.1068C18.7333 16.1068 19.3611 15.8436 19.8833 15.3172C20.4055 14.7908 20.6666 14.158 20.6666 13.4188C20.6666 12.6796 20.4055 12.0468 19.8833 11.5204C19.3611 10.994 18.7333 10.7308 18 10.7308C17.2666 10.7308 16.6389 10.994 16.1166 11.5204C15.5944 12.0468 15.3333 12.6796 15.3333 13.4188C15.3333 14.158 15.5944 14.7908 16.1166 15.3172C16.6389 15.8436 17.2666 16.1068 18 16.1068Z" fill="#1C1B1F"/>
</g>
</svg>
