<svg width="24" height="24" viewBox="0 0 24 24" fill="none" xmlns="http://www.w3.org/2000/svg">
<mask id="mask0_898_306" style="mask-type:alpha" maskUnits="userSpaceOnUse" x="0" y="0" width="24" height="24">
<rect width="24" height="24" fill="#D9D9D9"/>
</mask>
<g mask="url(#mask0_898_306)">
<path d="M12.0093 8.52548L4.30535 15.7818C4.16542 15.9136 3.99406 15.9859 3.79128 15.9985C3.58852 16.0112 3.40595 15.9411 3.24355 15.7882C3.08118 15.6353 3 15.4686 3 15.2882C3 15.1077 3.08118 14.941 3.24355 14.7881L11.1114 7.37741C11.2446 7.25194 11.3827 7.15767 11.5256 7.09462C11.6685 7.03154 11.8298 7 12.0093 7C12.1889 7 12.3502 7.03154 12.4931 7.09462C12.636 7.15767 12.7741 7.25194 12.9072 7.37741L20.7684 14.7818C20.9083 14.9136 20.985 15.0739 20.9984 15.2628C21.0119 15.4516 20.9375 15.6155 20.7751 15.7543C20.6127 15.9073 20.4358 15.9837 20.2442 15.9837C20.0527 15.9837 19.8757 15.9073 19.7133 15.7543L12.0093 8.52548Z" fill="black"/>
</g>
</svg>
