<svg width="24" height="24" viewBox="0 0 24 24" fill="none" xmlns="http://www.w3.org/2000/svg">
<mask id="mask0_898_293" style="mask-type:alpha" maskUnits="userSpaceOnUse" x="0" y="0" width="24" height="24">
<rect width="24" height="24" fill="#D9D9D9"/>
</mask>
<g mask="url(#mask0_898_293)">
<path d="M11.9955 16C11.8159 16 11.6546 15.972 11.5117 15.9159C11.3687 15.8598 11.2306 15.7689 11.0974 15.6433L3.22784 8.22446C3.08791 8.09254 3.01233 7.93204 3.00109 7.74295C2.98985 7.55385 3.06544 7.38276 3.22784 7.22965C3.39027 7.07655 3.56728 7 3.75887 7C3.95046 7 4.12746 7.07655 4.28986 7.22965L11.9955 14.494L19.7011 7.22965C19.8411 7.09771 20.0113 7.02644 20.2119 7.01585C20.4125 7.00528 20.594 7.07655 20.7564 7.22965C20.9188 7.38276 21 7.54962 21 7.73023C21 7.91085 20.9188 8.07771 20.7564 8.23081L12.8936 15.6433C12.7604 15.7689 12.6223 15.8598 12.4793 15.9159C12.3364 15.972 12.1751 16 11.9955 16Z" fill="black"/>
</g>
</svg>
