<svg width="24" height="24" viewBox="0 0 24 24" fill="none" xmlns="http://www.w3.org/2000/svg">
<mask id="mask0_921_226" style="mask-type:alpha" maskUnits="userSpaceOnUse" x="0" y="0" width="24" height="24">
<rect width="24" height="24" transform="matrix(1 0 0 -1 0 24)" fill="#D9D9D9"/>
</mask>
<g mask="url(#mask0_921_226)">
<path d="M12 9.62684C11.8923 9.62684 11.7929 9.64447 11.7019 9.67972C11.6109 9.71498 11.5218 9.7762 11.4346 9.86337L7.04615 14.2518C6.95256 14.3454 6.90256 14.4602 6.89615 14.5961C6.88973 14.732 6.93973 14.8531 7.04615 14.9595C7.15256 15.0659 7.27051 15.1191 7.4 15.1191C7.52948 15.1191 7.64743 15.0659 7.75385 14.9595L12 10.7134L16.2461 14.9595C16.3397 15.0531 16.4545 15.1031 16.5904 15.1095C16.7263 15.1159 16.8474 15.0659 16.9538 14.9595C17.0603 14.8531 17.1135 14.7352 17.1135 14.6057C17.1135 14.4762 17.0603 14.3582 16.9538 14.2518L12.5654 9.86337C12.4782 9.7762 12.3891 9.71498 12.2981 9.67972C12.2071 9.64447 12.1077 9.62684 12 9.62684Z" fill="black"/>
</g>
</svg>
