<svg width="24" height="24" viewBox="0 0 24 24" fill="none" xmlns="http://www.w3.org/2000/svg">
<mask id="mask0_898_321" style="mask-type:alpha" maskUnits="userSpaceOnUse" x="0" y="0" width="24" height="24">
<rect width="24" height="24" fill="#D9D9D9"/>
</mask>
<g mask="url(#mask0_898_321)">
<path d="M12 14.3732C11.8923 14.3732 11.7929 14.3555 11.7019 14.3203C11.6109 14.285 11.5218 14.2238 11.4346 14.1366L7.04615 9.74816C6.95256 9.65457 6.90256 9.53983 6.89615 9.40393C6.88973 9.26803 6.93973 9.14688 7.04615 9.04046C7.15256 8.93406 7.27051 8.88086 7.4 8.88086C7.52948 8.88086 7.64743 8.93406 7.75385 9.04046L12 13.2866L16.2461 9.04046C16.3397 8.94688 16.4545 8.89688 16.5904 8.89046C16.7263 8.88406 16.8474 8.93406 16.9538 9.04046C17.0603 9.14688 17.1135 9.26483 17.1135 9.39431C17.1135 9.52381 17.0603 9.64176 16.9538 9.74816L12.5654 14.1366C12.4782 14.2238 12.3891 14.285 12.2981 14.3203C12.2071 14.3555 12.1077 14.3732 12 14.3732Z" fill="black"/>
</g>
</svg>
