<svg width="24" height="24" viewBox="0 0 24 24" fill="none" xmlns="http://www.w3.org/2000/svg">
<mask id="mask0_522_51" style="mask-type:alpha" maskUnits="userSpaceOnUse" x="0" y="0" width="24" height="24">
<rect width="24" height="24" fill="#D9D9D9"/>
</mask>
<g mask="url(#mask0_522_51)">
<path d="M12 20L11.431 19.4771C9.75862 17.9259 8.375 16.6013 7.28017 15.5033C6.18535 14.4052 5.32328 13.4423 4.69397 12.6144C4.06466 11.7865 3.625 11.0414 3.375 10.3791C3.125 9.71678 3 9.05447 3 8.39216C3 7.15468 3.4181 6.11329 4.25431 5.26797C5.09052 4.42266 6.12069 4 7.34483 4C8.25862 4 9.11207 4.24837 9.90517 4.7451C10.6983 5.24183 11.3966 5.9695 12 6.9281C12.6034 5.9695 13.3017 5.24183 14.0948 4.7451C14.8879 4.24837 15.7414 4 16.6552 4C17.8793 4 18.9095 4.42266 19.7457 5.26797C20.5819 6.11329 21 7.15468 21 8.39216C21 9.05447 20.875 9.71678 20.625 10.3791C20.375 11.0414 19.9353 11.7865 19.306 12.6144C18.6767 13.4423 17.819 14.4052 16.7328 15.5033C15.6466 16.6013 14.2586 17.9259 12.569 19.4771L12 20ZM12 19.0065C13.6552 17.4902 15.0172 16.1917 16.0862 15.1111C17.1552 14.0305 18 13.0937 18.6207 12.3007C19.2414 11.5076 19.6724 10.8061 19.9138 10.1961C20.1552 9.58606 20.2759 8.98475 20.2759 8.39216C20.2759 7.34641 19.931 6.47495 19.2414 5.77778C18.5517 5.08061 17.6897 4.73203 16.6552 4.73203C15.8276 4.73203 15.0647 4.97168 14.3664 5.45098C13.6681 5.93028 13 6.6841 12.3621 7.71242H11.6379C10.9828 6.66667 10.3103 5.9085 9.62069 5.43791C8.93104 4.96732 8.17241 4.73203 7.34483 4.73203C6.32759 4.73203 5.46983 5.08061 4.77155 5.77778C4.07328 6.47495 3.72414 7.34641 3.72414 8.39216C3.72414 8.98475 3.84483 9.58606 4.08621 10.1961C4.32759 10.8061 4.75862 11.5076 5.37931 12.3007C6 13.0937 6.84483 14.0261 7.91379 15.098C8.98276 16.1699 10.3448 17.4728 12 19.0065Z" fill="#444444"/>
</g>
</svg>
