<svg width="16" height="16" viewBox="0 0 16 16" fill="none" xmlns="http://www.w3.org/2000/svg">
<rect width="16" height="16" rx="8" fill="black"/>
<path d="M7.542 13.182C7.33667 13.182 7.164 13.1167 7.024 12.986C6.89333 12.846 6.828 12.6733 6.828 12.468C6.828 12.2627 6.89333 12.0993 7.024 11.978C7.15467 11.8473 7.32733 11.782 7.542 11.782C7.74733 11.782 7.91067 11.8473 8.032 11.978C8.16267 12.0993 8.228 12.2627 8.228 12.468C8.228 12.6827 8.16267 12.8553 8.032 12.986C7.91067 13.1167 7.74733 13.182 7.542 13.182ZM4.714 4.964C4.95667 4.31067 5.36267 3.77867 5.932 3.368C6.51067 2.95733 7.12667 2.752 7.78 2.752C8.37733 2.752 8.90467 2.87333 9.362 3.116C9.81933 3.34933 10.174 3.68067 10.426 4.11C10.678 4.53933 10.804 5.02933 10.804 5.58C10.804 6.09333 10.664 6.59267 10.384 7.078C10.1133 7.554 9.65133 8.03467 8.998 8.52C8.62467 8.8 8.37267 9.08 8.242 9.36C8.11133 9.63067 8.05067 10.0367 8.06 10.578H7.024C7.01467 9.89667 7.11267 9.33667 7.318 8.898C7.53267 8.45 7.88733 8.044 8.382 7.68C8.914 7.27867 9.278 6.924 9.474 6.616C9.67 6.29867 9.768 5.95333 9.768 5.58C9.768 5.048 9.58133 4.61867 9.208 4.292C8.844 3.956 8.368 3.788 7.78 3.788C7.34133 3.788 6.926 3.93267 6.534 4.222C6.15133 4.502 5.87133 4.87067 5.694 5.328L4.714 4.964Z" fill="white"/>
</svg>
