<svg width="36" height="36" viewBox="0 0 36 36" fill="none" xmlns="http://www.w3.org/2000/svg">
<mask id="mask0_580_1401" style="mask-type:alpha" maskUnits="userSpaceOnUse" x="2" y="2" width="32" height="32">
<rect x="2" y="2" width="32" height="32" fill="#D9D9D9"/>
</mask>
<g mask="url(#mask0_580_1401)">
<path d="M9.41027 31.208C8.73676 31.208 8.16667 30.9728 7.7 30.5024C7.23333 30.032 7 29.4573 7 28.7784V13.4775C7 12.7986 7.23333 12.224 7.7 11.7536C8.16667 11.2832 8.73676 11.048 9.41027 11.048H12.3333C12.3333 9.3697 12.9171 7.94214 14.0846 6.76528C15.2521 5.58843 16.6684 5 18.3333 5C19.9982 5 21.4145 5.58843 22.582 6.76528C23.7495 7.94214 24.3333 9.3697 24.3333 11.048H27.2563C27.9298 11.048 28.4999 11.2832 28.9666 11.7536C29.4333 12.224 29.6666 12.7986 29.6666 13.4775V28.7784C29.6666 29.4573 29.4333 30.032 28.9666 30.5024C28.4999 30.9728 27.9298 31.208 27.2563 31.208H9.41027ZM9.41027 29.192H27.2563C27.3589 29.192 27.4529 29.1489 27.5384 29.0628C27.6239 28.9766 27.6666 28.8818 27.6666 28.7784V13.4775C27.6666 13.3741 27.6239 13.2793 27.5384 13.1932C27.4529 13.107 27.3589 13.0639 27.2563 13.0639H9.41027C9.30769 13.0639 9.21366 13.107 9.12817 13.1932C9.0427 13.2793 8.99997 13.3741 8.99997 13.4775V28.7784C8.99997 28.8818 9.0427 28.9766 9.12817 29.0628C9.21366 29.1489 9.30769 29.192 9.41027 29.192ZM18.3333 20.4559C19.9982 20.4559 21.4145 19.8675 22.582 18.6906C23.7495 17.5138 24.3333 16.0862 24.3333 14.4079H22.3333C22.3333 15.5279 21.9444 16.4799 21.1666 17.2639C20.3889 18.048 19.4444 18.44 18.3333 18.44C17.2222 18.44 16.2777 18.048 15.5 17.2639C14.7222 16.4799 14.3333 15.5279 14.3333 14.4079H12.3333C12.3333 16.0862 12.9171 17.5138 14.0846 18.6906C15.2521 19.8675 16.6684 20.4559 18.3333 20.4559ZM14.3333 11.048H22.3333C22.3333 9.92795 21.9444 8.97595 21.1666 8.19194C20.3889 7.40794 19.4444 7.01594 18.3333 7.01594C17.2222 7.01594 16.2777 7.40794 15.5 8.19194C14.7222 8.97595 14.3333 9.92795 14.3333 11.048Z" fill="#1C1B1F"/>
</g>
</svg>
