<svg width="114" height="24" viewBox="0 0 114 24" fill="none" xmlns="http://www.w3.org/2000/svg">
<path fill-rule="evenodd" clip-rule="evenodd" d="M3.09 22.74L5.55638 15.735H12.7067L14.97 22.74H12.3V22.95H22.545V22.74H20.37L12.48 0H10.86L2.85 22.74H0V22.95H6.6V22.74H3.09ZM12.6388 15.525H5.63032L9.285 5.145L12.6388 15.525ZM33.2426 0.45C35.6126 0.45 37.6476 0.925 39.3476 1.875C41.0576 2.815 42.3676 4.13 43.2776 5.82C44.1876 7.51 44.6426 9.47 44.6426 11.7C44.6426 13.38 44.3676 14.91 43.8176 16.29C43.2776 17.66 42.5026 18.845 41.4926 19.845C40.4926 20.835 39.2926 21.6 37.8926 22.14C36.4926 22.68 34.9426 22.95 33.2426 22.95H23.6426V22.74H26.3426V0.66H23.6426V0.45H33.2426ZM30.9926 22.74H33.2426C34.3926 22.74 35.3626 22.445 36.1526 21.855C36.9426 21.265 37.5726 20.46 38.0426 19.44C38.5226 18.42 38.8676 17.245 39.0776 15.915C39.2876 14.585 39.3926 13.18 39.3926 11.7C39.3926 10.22 39.2726 8.815 39.0326 7.485C38.7926 6.155 38.4226 4.98 37.9226 3.96C37.4326 2.94 36.7976 2.135 36.0176 1.545C35.2476 0.955001 34.3226 0.66 33.2426 0.66H30.9926V22.74ZM53.1098 22.38C54.3698 22.96 55.7998 23.25 57.3998 23.25C58.9898 23.25 60.4148 22.96 61.6748 22.38C62.9348 21.8 64.0048 20.985 64.8848 19.935C65.7648 18.885 66.4348 17.66 66.8948 16.26C67.3548 14.86 67.5848 13.34 67.5848 11.7C67.5848 10.06 67.3398 8.54 66.8498 7.14C66.3698 5.74 65.6798 4.515 64.7798 3.465C63.8798 2.415 62.8048 1.6 61.5548 1.02C60.3048 0.44 58.9198 0.15 57.3998 0.15C55.8698 0.15 54.4798 0.44 53.2298 1.02C51.9798 1.6 50.9048 2.415 50.0048 3.465C49.1048 4.515 48.4098 5.74 47.9198 7.14C47.4298 8.54 47.1848 10.06 47.1848 11.7C47.1848 13.34 47.4148 14.86 47.8748 16.26C48.3448 17.66 49.0198 18.885 49.8998 19.935C50.7798 20.985 51.8498 21.8 53.1098 22.38ZM59.9348 22.17C59.2848 22.76 58.4398 23.055 57.3998 23.055C56.3598 23.055 55.5098 22.76 54.8498 22.17C54.1998 21.57 53.6998 20.75 53.3498 19.71C52.9998 18.66 52.7598 17.45 52.6298 16.08C52.4998 14.71 52.4348 13.25 52.4348 11.7C52.4348 10.15 52.5148 8.69 52.6748 7.32C52.8348 5.95 53.0998 4.745 53.4698 3.705C53.8398 2.655 54.3448 1.835 54.9848 1.245C55.6248 0.645 56.4298 0.345 57.3998 0.345C58.3698 0.345 59.1698 0.645 59.7998 1.245C60.4398 1.835 60.9448 2.655 61.3148 3.705C61.6848 4.745 61.9448 5.95 62.0948 7.32C62.2548 8.69 62.3348 10.15 62.3348 11.7C62.3348 13.25 62.2698 14.71 62.1398 16.08C62.0198 17.45 61.7848 18.66 61.4348 19.71C61.0848 20.75 60.5848 21.57 59.9348 22.17ZM77.0543 22.74V11.535H79.1543C80.0743 11.535 80.7893 11.7 81.2993 12.03C81.8093 12.35 82.1743 12.79 82.3943 13.35C82.6143 13.9 82.7493 14.52 82.7993 15.21C82.8593 15.9 82.8893 16.615 82.8893 17.355C82.8993 18.095 82.9443 18.81 83.0243 19.5C83.1043 20.19 83.2793 20.815 83.5493 21.375C83.8293 21.925 84.2593 22.365 84.8393 22.695C85.4293 23.015 86.2343 23.175 87.2543 23.175C88.1443 23.175 88.9043 23.105 89.5343 22.965C90.1743 22.825 90.6143 22.69 90.8543 22.56L90.7793 22.395C90.5693 22.495 90.3143 22.585 90.0143 22.665C89.7243 22.735 89.4243 22.77 89.1143 22.77C88.5843 22.77 88.2243 22.565 88.0343 22.155C87.8443 21.745 87.7343 21.205 87.7043 20.535C87.6843 19.855 87.6743 19.11 87.6743 18.3C87.6743 17.49 87.6093 16.68 87.4793 15.87C87.3593 15.06 87.0993 14.32 86.6993 13.65C86.2993 12.97 85.6893 12.425 84.8693 12.015C84.0641 11.6074 82.9673 11.4024 81.579 11.4C82.6391 11.32 83.5859 11.16 84.4193 10.92C85.6793 10.55 86.6393 9.97 87.2993 9.18C87.9693 8.38 88.3043 7.33 88.3043 6.03C88.3043 4.73 87.9493 3.67 87.2393 2.85C86.5293 2.03 85.5443 1.425 84.2843 1.035C83.0243 0.645 81.5643 0.45 79.9043 0.45H69.4043V0.66H72.4043V22.74H69.4043V22.95H80.0543V22.74H77.0543ZM79.1543 11.325H77.0543V0.66H79.1543C80.1143 0.66 80.9143 0.86 81.5543 1.26C82.2043 1.66 82.6893 2.26 83.0093 3.06C83.3393 3.85 83.5043 4.84 83.5043 6.03C83.5043 7.22 83.3393 8.21 83.0093 9C82.6893 9.78 82.2043 10.365 81.5543 10.755C80.9143 11.135 80.1143 11.325 79.1543 11.325ZM94.9971 22.74V0.653372L109.997 23.25H110.252V0.66H113.402V0.45H106.622V0.645H110.042V15.3L100.397 0.45H94.9971H94.8621H91.7871V0.66H94.7871V22.74H91.7871V22.95H98.4771V22.74H94.9971Z" fill="black"/>
</svg>
